<?xml version="1.0" encoding="utf-8" standalone="no"?>
<!DOCTYPE svg PUBLIC "-//W3C//DTD SVG 1.1//EN"
  "http://www.w3.org/Graphics/SVG/1.1/DTD/svg11.dtd">
<svg xmlns:xlink="http://www.w3.org/1999/xlink" width="1440pt" height="810pt" viewBox="0 0 1440 810" xmlns="http://www.w3.org/2000/svg" version="1.1">
 <metadata>
  <rdf:RDF xmlns:dc="http://purl.org/dc/elements/1.1/" xmlns:cc="http://creativecommons.org/ns#" xmlns:rdf="http://www.w3.org/1999/02/22-rdf-syntax-ns#">
   <cc:Work>
    <dc:type rdf:resource="http://purl.org/dc/dcmitype/StillImage"/>
    <dc:date>2023-12-11T17:49:19.881207</dc:date>
    <dc:format>image/svg+xml</dc:format>
    <dc:creator>
     <cc:Agent>
      <dc:title>Matplotlib v3.7.2, https://matplotlib.org/</dc:title>
     </cc:Agent>
    </dc:creator>
   </cc:Work>
  </rdf:RDF>
 </metadata>
 <defs>
  <style type="text/css">*{stroke-linejoin: round; stroke-linecap: butt}</style>
 </defs>
 <g id="figure_1">
  <g id="patch_1">
   <path d="M 0 810 
L 1440 810 
L 1440 0 
L 0 0 
z
" style="fill: #ffffff"/>
  </g>
  <g id="axes_1">
   <g id="patch_2">
    <path d="M 48.2375 767.2 
L 1391.7625 767.2 
L 1391.7625 14.925 
L 48.2375 14.925 
z
" style="fill: #ffffff"/>
   </g>
   <g id="matplotlib.axis_1">
    <g id="xtick_1">
     <g id="line2d_1">
      <defs>
       <path id="m6b3a97945e" d="M 0 0 
L 0 3.5 
" style="stroke: #000000; stroke-width: 0.8"/>
      </defs>
      <g>
       <use xlink:href="#m6b3a97945e" x="109.306818" y="767.2" style="stroke: #000000; stroke-width: 0.8"/>
      </g>
     </g>
     <g id="text_1">
      <!-- 0 -->
      <g transform="translate(106.125568 781.798437) scale(0.1 -0.1)">
       <defs>
        <path id="DejaVuSans-30" d="M 2034 4250 
Q 1547 4250 1301 3770 
Q 1056 3291 1056 2328 
Q 1056 1369 1301 889 
Q 1547 409 2034 409 
Q 2525 409 2770 889 
Q 3016 1369 3016 2328 
Q 3016 3291 2770 3770 
Q 2525 4250 2034 4250 
z
M 2034 4750 
Q 2819 4750 3233 4129 
Q 3647 3509 3647 2328 
Q 3647 1150 3233 529 
Q 2819 -91 2034 -91 
Q 1250 -91 836 529 
Q 422 1150 422 2328 
Q 422 3509 836 4129 
Q 1250 4750 2034 4750 
z
" transform="scale(0.015625)"/>
       </defs>
       <use xlink:href="#DejaVuSans-30"/>
      </g>
     </g>
    </g>
    <g id="xtick_2">
     <g id="line2d_2">
      <g>
       <use xlink:href="#m6b3a97945e" x="358.569341" y="767.2" style="stroke: #000000; stroke-width: 0.8"/>
      </g>
     </g>
     <g id="text_2">
      <!-- 10 -->
      <g transform="translate(352.206841 781.798437) scale(0.1 -0.1)">
       <defs>
        <path id="DejaVuSans-31" d="M 794 531 
L 1825 531 
L 1825 4091 
L 703 3866 
L 703 4441 
L 1819 4666 
L 2450 4666 
L 2450 531 
L 3481 531 
L 3481 0 
L 794 0 
L 794 531 
z
" transform="scale(0.015625)"/>
       </defs>
       <use xlink:href="#DejaVuSans-31"/>
       <use xlink:href="#DejaVuSans-30" x="63.623047"/>
      </g>
     </g>
    </g>
    <g id="xtick_3">
     <g id="line2d_3">
      <g>
       <use xlink:href="#m6b3a97945e" x="607.831865" y="767.2" style="stroke: #000000; stroke-width: 0.8"/>
      </g>
     </g>
     <g id="text_3">
      <!-- 20 -->
      <g transform="translate(601.469365 781.798437) scale(0.1 -0.1)">
       <defs>
        <path id="DejaVuSans-32" d="M 1228 531 
L 3431 531 
L 3431 0 
L 469 0 
L 469 531 
Q 828 903 1448 1529 
Q 2069 2156 2228 2338 
Q 2531 2678 2651 2914 
Q 2772 3150 2772 3378 
Q 2772 3750 2511 3984 
Q 2250 4219 1831 4219 
Q 1534 4219 1204 4116 
Q 875 4013 500 3803 
L 500 4441 
Q 881 4594 1212 4672 
Q 1544 4750 1819 4750 
Q 2544 4750 2975 4387 
Q 3406 4025 3406 3419 
Q 3406 3131 3298 2873 
Q 3191 2616 2906 2266 
Q 2828 2175 2409 1742 
Q 1991 1309 1228 531 
z
" transform="scale(0.015625)"/>
       </defs>
       <use xlink:href="#DejaVuSans-32"/>
       <use xlink:href="#DejaVuSans-30" x="63.623047"/>
      </g>
     </g>
    </g>
    <g id="xtick_4">
     <g id="line2d_4">
      <g>
       <use xlink:href="#m6b3a97945e" x="857.094388" y="767.2" style="stroke: #000000; stroke-width: 0.8"/>
      </g>
     </g>
     <g id="text_4">
      <!-- 30 -->
      <g transform="translate(850.731888 781.798437) scale(0.1 -0.1)">
       <defs>
        <path id="DejaVuSans-33" d="M 2597 2516 
Q 3050 2419 3304 2112 
Q 3559 1806 3559 1356 
Q 3559 666 3084 287 
Q 2609 -91 1734 -91 
Q 1441 -91 1130 -33 
Q 819 25 488 141 
L 488 750 
Q 750 597 1062 519 
Q 1375 441 1716 441 
Q 2309 441 2620 675 
Q 2931 909 2931 1356 
Q 2931 1769 2642 2001 
Q 2353 2234 1838 2234 
L 1294 2234 
L 1294 2753 
L 1863 2753 
Q 2328 2753 2575 2939 
Q 2822 3125 2822 3475 
Q 2822 3834 2567 4026 
Q 2313 4219 1838 4219 
Q 1578 4219 1281 4162 
Q 984 4106 628 3988 
L 628 4550 
Q 988 4650 1302 4700 
Q 1616 4750 1894 4750 
Q 2613 4750 3031 4423 
Q 3450 4097 3450 3541 
Q 3450 3153 3228 2886 
Q 3006 2619 2597 2516 
z
" transform="scale(0.015625)"/>
       </defs>
       <use xlink:href="#DejaVuSans-33"/>
       <use xlink:href="#DejaVuSans-30" x="63.623047"/>
      </g>
     </g>
    </g>
    <g id="xtick_5">
     <g id="line2d_5">
      <g>
       <use xlink:href="#m6b3a97945e" x="1106.356911" y="767.2" style="stroke: #000000; stroke-width: 0.8"/>
      </g>
     </g>
     <g id="text_5">
      <!-- 40 -->
      <g transform="translate(1099.994411 781.798437) scale(0.1 -0.1)">
       <defs>
        <path id="DejaVuSans-34" d="M 2419 4116 
L 825 1625 
L 2419 1625 
L 2419 4116 
z
M 2253 4666 
L 3047 4666 
L 3047 1625 
L 3713 1625 
L 3713 1100 
L 3047 1100 
L 3047 0 
L 2419 0 
L 2419 1100 
L 313 1100 
L 313 1709 
L 2253 4666 
z
" transform="scale(0.015625)"/>
       </defs>
       <use xlink:href="#DejaVuSans-34"/>
       <use xlink:href="#DejaVuSans-30" x="63.623047"/>
      </g>
     </g>
    </g>
    <g id="xtick_6">
     <g id="line2d_6">
      <g>
       <use xlink:href="#m6b3a97945e" x="1355.619434" y="767.2" style="stroke: #000000; stroke-width: 0.8"/>
      </g>
     </g>
     <g id="text_6">
      <!-- 50 -->
      <g transform="translate(1349.256934 781.798437) scale(0.1 -0.1)">
       <defs>
        <path id="DejaVuSans-35" d="M 691 4666 
L 3169 4666 
L 3169 4134 
L 1269 4134 
L 1269 2991 
Q 1406 3038 1543 3061 
Q 1681 3084 1819 3084 
Q 2600 3084 3056 2656 
Q 3513 2228 3513 1497 
Q 3513 744 3044 326 
Q 2575 -91 1722 -91 
Q 1428 -91 1123 -41 
Q 819 9 494 109 
L 494 744 
Q 775 591 1075 516 
Q 1375 441 1709 441 
Q 2250 441 2565 725 
Q 2881 1009 2881 1497 
Q 2881 1984 2565 2268 
Q 2250 2553 1709 2553 
Q 1456 2553 1204 2497 
Q 953 2441 691 2322 
L 691 4666 
z
" transform="scale(0.015625)"/>
       </defs>
       <use xlink:href="#DejaVuSans-35"/>
       <use xlink:href="#DejaVuSans-30" x="63.623047"/>
      </g>
     </g>
    </g>
    <g id="text_7">
     <!-- step -->
     <g transform="translate(709.184375 795.476562) scale(0.1 -0.1)">
      <defs>
       <path id="DejaVuSans-73" d="M 2834 3397 
L 2834 2853 
Q 2591 2978 2328 3040 
Q 2066 3103 1784 3103 
Q 1356 3103 1142 2972 
Q 928 2841 928 2578 
Q 928 2378 1081 2264 
Q 1234 2150 1697 2047 
L 1894 2003 
Q 2506 1872 2764 1633 
Q 3022 1394 3022 966 
Q 3022 478 2636 193 
Q 2250 -91 1575 -91 
Q 1294 -91 989 -36 
Q 684 19 347 128 
L 347 722 
Q 666 556 975 473 
Q 1284 391 1588 391 
Q 1994 391 2212 530 
Q 2431 669 2431 922 
Q 2431 1156 2273 1281 
Q 2116 1406 1581 1522 
L 1381 1569 
Q 847 1681 609 1914 
Q 372 2147 372 2553 
Q 372 3047 722 3315 
Q 1072 3584 1716 3584 
Q 2034 3584 2315 3537 
Q 2597 3491 2834 3397 
z
" transform="scale(0.015625)"/>
       <path id="DejaVuSans-74" d="M 1172 4494 
L 1172 3500 
L 2356 3500 
L 2356 3053 
L 1172 3053 
L 1172 1153 
Q 1172 725 1289 603 
Q 1406 481 1766 481 
L 2356 481 
L 2356 0 
L 1766 0 
Q 1100 0 847 248 
Q 594 497 594 1153 
L 594 3053 
L 172 3053 
L 172 3500 
L 594 3500 
L 594 4494 
L 1172 4494 
z
" transform="scale(0.015625)"/>
       <path id="DejaVuSans-65" d="M 3597 1894 
L 3597 1613 
L 953 1613 
Q 991 1019 1311 708 
Q 1631 397 2203 397 
Q 2534 397 2845 478 
Q 3156 559 3463 722 
L 3463 178 
Q 3153 47 2828 -22 
Q 2503 -91 2169 -91 
Q 1331 -91 842 396 
Q 353 884 353 1716 
Q 353 2575 817 3079 
Q 1281 3584 2069 3584 
Q 2775 3584 3186 3129 
Q 3597 2675 3597 1894 
z
M 3022 2063 
Q 3016 2534 2758 2815 
Q 2500 3097 2075 3097 
Q 1594 3097 1305 2825 
Q 1016 2553 972 2059 
L 3022 2063 
z
" transform="scale(0.015625)"/>
       <path id="DejaVuSans-70" d="M 1159 525 
L 1159 -1331 
L 581 -1331 
L 581 3500 
L 1159 3500 
L 1159 2969 
Q 1341 3281 1617 3432 
Q 1894 3584 2278 3584 
Q 2916 3584 3314 3078 
Q 3713 2572 3713 1747 
Q 3713 922 3314 415 
Q 2916 -91 2278 -91 
Q 1894 -91 1617 61 
Q 1341 213 1159 525 
z
M 3116 1747 
Q 3116 2381 2855 2742 
Q 2594 3103 2138 3103 
Q 1681 3103 1420 2742 
Q 1159 2381 1159 1747 
Q 1159 1113 1420 752 
Q 1681 391 2138 391 
Q 2594 391 2855 752 
Q 3116 1113 3116 1747 
z
" transform="scale(0.015625)"/>
      </defs>
      <use xlink:href="#DejaVuSans-73"/>
      <use xlink:href="#DejaVuSans-74" x="52.099609"/>
      <use xlink:href="#DejaVuSans-65" x="91.308594"/>
      <use xlink:href="#DejaVuSans-70" x="152.832031"/>
     </g>
    </g>
   </g>
   <g id="matplotlib.axis_2">
    <g id="ytick_1">
     <g id="line2d_7">
      <defs>
       <path id="m2858fb9e24" d="M 0 0 
L -3.5 0 
" style="stroke: #000000; stroke-width: 0.8"/>
      </defs>
      <g>
       <use xlink:href="#m2858fb9e24" x="48.2375" y="767.2" style="stroke: #000000; stroke-width: 0.8"/>
      </g>
     </g>
     <g id="text_8">
      <!-- 0.0 -->
      <g style="fill: #d62728" transform="translate(25.334375 770.999219) scale(0.1 -0.1)">
       <defs>
        <path id="DejaVuSans-2e" d="M 684 794 
L 1344 794 
L 1344 0 
L 684 0 
L 684 794 
z
" transform="scale(0.015625)"/>
       </defs>
       <use xlink:href="#DejaVuSans-30"/>
       <use xlink:href="#DejaVuSans-2e" x="63.623047"/>
       <use xlink:href="#DejaVuSans-30" x="95.410156"/>
      </g>
     </g>
    </g>
    <g id="ytick_2">
     <g id="line2d_8">
      <g>
       <use xlink:href="#m2858fb9e24" x="48.2375" y="616.745" style="stroke: #000000; stroke-width: 0.8"/>
      </g>
     </g>
     <g id="text_9">
      <!-- 0.2 -->
      <g style="fill: #d62728" transform="translate(25.334375 620.544219) scale(0.1 -0.1)">
       <use xlink:href="#DejaVuSans-30"/>
       <use xlink:href="#DejaVuSans-2e" x="63.623047"/>
       <use xlink:href="#DejaVuSans-32" x="95.410156"/>
      </g>
     </g>
    </g>
    <g id="ytick_3">
     <g id="line2d_9">
      <g>
       <use xlink:href="#m2858fb9e24" x="48.2375" y="466.29" style="stroke: #000000; stroke-width: 0.8"/>
      </g>
     </g>
     <g id="text_10">
      <!-- 0.4 -->
      <g style="fill: #d62728" transform="translate(25.334375 470.089219) scale(0.1 -0.1)">
       <use xlink:href="#DejaVuSans-30"/>
       <use xlink:href="#DejaVuSans-2e" x="63.623047"/>
       <use xlink:href="#DejaVuSans-34" x="95.410156"/>
      </g>
     </g>
    </g>
    <g id="ytick_4">
     <g id="line2d_10">
      <g>
       <use xlink:href="#m2858fb9e24" x="48.2375" y="315.835" style="stroke: #000000; stroke-width: 0.8"/>
      </g>
     </g>
     <g id="text_11">
      <!-- 0.6 -->
      <g style="fill: #d62728" transform="translate(25.334375 319.634219) scale(0.1 -0.1)">
       <defs>
        <path id="DejaVuSans-36" d="M 2113 2584 
Q 1688 2584 1439 2293 
Q 1191 2003 1191 1497 
Q 1191 994 1439 701 
Q 1688 409 2113 409 
Q 2538 409 2786 701 
Q 3034 994 3034 1497 
Q 3034 2003 2786 2293 
Q 2538 2584 2113 2584 
z
M 3366 4563 
L 3366 3988 
Q 3128 4100 2886 4159 
Q 2644 4219 2406 4219 
Q 1781 4219 1451 3797 
Q 1122 3375 1075 2522 
Q 1259 2794 1537 2939 
Q 1816 3084 2150 3084 
Q 2853 3084 3261 2657 
Q 3669 2231 3669 1497 
Q 3669 778 3244 343 
Q 2819 -91 2113 -91 
Q 1303 -91 875 529 
Q 447 1150 447 2328 
Q 447 3434 972 4092 
Q 1497 4750 2381 4750 
Q 2619 4750 2861 4703 
Q 3103 4656 3366 4563 
z
" transform="scale(0.015625)"/>
       </defs>
       <use xlink:href="#DejaVuSans-30"/>
       <use xlink:href="#DejaVuSans-2e" x="63.623047"/>
       <use xlink:href="#DejaVuSans-36" x="95.410156"/>
      </g>
     </g>
    </g>
    <g id="ytick_5">
     <g id="line2d_11">
      <g>
       <use xlink:href="#m2858fb9e24" x="48.2375" y="165.38" style="stroke: #000000; stroke-width: 0.8"/>
      </g>
     </g>
     <g id="text_12">
      <!-- 0.8 -->
      <g style="fill: #d62728" transform="translate(25.334375 169.179219) scale(0.1 -0.1)">
       <defs>
        <path id="DejaVuSans-38" d="M 2034 2216 
Q 1584 2216 1326 1975 
Q 1069 1734 1069 1313 
Q 1069 891 1326 650 
Q 1584 409 2034 409 
Q 2484 409 2743 651 
Q 3003 894 3003 1313 
Q 3003 1734 2745 1975 
Q 2488 2216 2034 2216 
z
M 1403 2484 
Q 997 2584 770 2862 
Q 544 3141 544 3541 
Q 544 4100 942 4425 
Q 1341 4750 2034 4750 
Q 2731 4750 3128 4425 
Q 3525 4100 3525 3541 
Q 3525 3141 3298 2862 
Q 3072 2584 2669 2484 
Q 3125 2378 3379 2068 
Q 3634 1759 3634 1313 
Q 3634 634 3220 271 
Q 2806 -91 2034 -91 
Q 1263 -91 848 271 
Q 434 634 434 1313 
Q 434 1759 690 2068 
Q 947 2378 1403 2484 
z
M 1172 3481 
Q 1172 3119 1398 2916 
Q 1625 2713 2034 2713 
Q 2441 2713 2670 2916 
Q 2900 3119 2900 3481 
Q 2900 3844 2670 4047 
Q 2441 4250 2034 4250 
Q 1625 4250 1398 4047 
Q 1172 3844 1172 3481 
z
" transform="scale(0.015625)"/>
       </defs>
       <use xlink:href="#DejaVuSans-30"/>
       <use xlink:href="#DejaVuSans-2e" x="63.623047"/>
       <use xlink:href="#DejaVuSans-38" x="95.410156"/>
      </g>
     </g>
    </g>
    <g id="ytick_6">
     <g id="line2d_12">
      <g>
       <use xlink:href="#m2858fb9e24" x="48.2375" y="14.925" style="stroke: #000000; stroke-width: 0.8"/>
      </g>
     </g>
     <g id="text_13">
      <!-- 1.0 -->
      <g style="fill: #d62728" transform="translate(25.334375 18.724219) scale(0.1 -0.1)">
       <use xlink:href="#DejaVuSans-31"/>
       <use xlink:href="#DejaVuSans-2e" x="63.623047"/>
       <use xlink:href="#DejaVuSans-30" x="95.410156"/>
      </g>
     </g>
    </g>
    <g id="text_14">
     <!-- score -->
     <g style="fill: #d62728" transform="translate(19.254688 404.495313) rotate(-90) scale(0.1 -0.1)">
      <defs>
       <path id="DejaVuSans-63" d="M 3122 3366 
L 3122 2828 
Q 2878 2963 2633 3030 
Q 2388 3097 2138 3097 
Q 1578 3097 1268 2742 
Q 959 2388 959 1747 
Q 959 1106 1268 751 
Q 1578 397 2138 397 
Q 2388 397 2633 464 
Q 2878 531 3122 666 
L 3122 134 
Q 2881 22 2623 -34 
Q 2366 -91 2075 -91 
Q 1284 -91 818 406 
Q 353 903 353 1747 
Q 353 2603 823 3093 
Q 1294 3584 2113 3584 
Q 2378 3584 2631 3529 
Q 2884 3475 3122 3366 
z
" transform="scale(0.015625)"/>
       <path id="DejaVuSans-6f" d="M 1959 3097 
Q 1497 3097 1228 2736 
Q 959 2375 959 1747 
Q 959 1119 1226 758 
Q 1494 397 1959 397 
Q 2419 397 2687 759 
Q 2956 1122 2956 1747 
Q 2956 2369 2687 2733 
Q 2419 3097 1959 3097 
z
M 1959 3584 
Q 2709 3584 3137 3096 
Q 3566 2609 3566 1747 
Q 3566 888 3137 398 
Q 2709 -91 1959 -91 
Q 1206 -91 779 398 
Q 353 888 353 1747 
Q 353 2609 779 3096 
Q 1206 3584 1959 3584 
z
" transform="scale(0.015625)"/>
       <path id="DejaVuSans-72" d="M 2631 2963 
Q 2534 3019 2420 3045 
Q 2306 3072 2169 3072 
Q 1681 3072 1420 2755 
Q 1159 2438 1159 1844 
L 1159 0 
L 581 0 
L 581 3500 
L 1159 3500 
L 1159 2956 
Q 1341 3275 1631 3429 
Q 1922 3584 2338 3584 
Q 2397 3584 2469 3576 
Q 2541 3569 2628 3553 
L 2631 2963 
z
" transform="scale(0.015625)"/>
      </defs>
      <use xlink:href="#DejaVuSans-73"/>
      <use xlink:href="#DejaVuSans-63" x="52.099609"/>
      <use xlink:href="#DejaVuSans-6f" x="107.080078"/>
      <use xlink:href="#DejaVuSans-72" x="168.261719"/>
      <use xlink:href="#DejaVuSans-65" x="207.125"/>
     </g>
    </g>
   </g>
   <g id="line2d_13">
    <path d="M 109.306818 391.0625 
L 134.233071 391.0625 
L 159.159323 391.0625 
L 184.085575 391.0625 
L 209.011827 391.0625 
L 233.93808 391.0625 
L 258.864332 391.0625 
L 283.790584 391.0625 
L 308.716837 391.0625 
L 333.643089 391.0625 
L 358.569341 391.0625 
L 383.495594 391.0625 
L 408.421846 391.0625 
L 433.348098 391.0625 
L 458.274351 391.0625 
L 483.200603 391.0625 
L 508.126855 391.0625 
L 533.053108 391.0625 
L 557.97936 391.0625 
L 582.905612 391.0625 
L 607.831865 391.0625 
L 632.758117 391.0625 
L 657.684369 391.0625 
L 682.610622 391.0625 
L 707.536874 391.0625 
L 732.463126 391.0625 
L 757.389378 391.0625 
L 782.315631 391.0625 
L 807.241883 391.0625 
L 832.168135 391.0625 
L 857.094388 391.0625 
L 882.02064 391.0625 
L 906.946892 391.0625 
L 931.873145 391.0625 
L 956.799397 391.0625 
L 981.725649 391.0625 
L 1006.651902 391.0625 
L 1031.578154 391.0625 
L 1056.504406 391.0625 
L 1081.430659 391.0625 
L 1106.356911 391.0625 
L 1131.283163 391.0625 
L 1156.209416 391.0625 
L 1181.135668 391.0625 
L 1206.06192 391.0625 
L 1230.988173 391.0625 
L 1255.914425 391.0625 
L 1280.840677 391.0625 
L 1305.766929 391.0625 
L 1330.693182 391.0625 
" clip-path="url(#pa52851e04a)" style="fill: none; stroke-dasharray: 1.5,2.475; stroke-dashoffset: 0; stroke: #808080; stroke-width: 1.5"/>
   </g>
   <g id="line2d_14">
    <path d="M 109.306818 308.31225 
L 134.233071 251.891625 
L 159.159323 229.323375 
L 184.085575 233.08475 
L 209.011827 221.800625 
L 233.93808 199.232375 
L 258.864332 255.653 
L 283.790584 225.562 
L 308.716837 139.050375 
L 333.643089 229.323375 
L 358.569341 210.5165 
L 383.495594 210.5165 
L 408.421846 180.4255 
L 433.348098 165.38 
L 458.274351 176.664125 
L 483.200603 139.050375 
L 508.126855 142.81175 
L 533.053108 142.81175 
L 557.97936 105.198 
L 582.905612 101.436625 
L 607.831865 157.85725 
L 632.758117 139.050375 
L 657.684369 108.959375 
L 682.610622 108.959375 
L 707.536874 146.573125 
L 732.463126 127.76625 
L 757.389378 108.959375 
L 782.315631 150.3345 
L 807.241883 172.90275 
L 832.168135 165.38 
L 857.094388 146.573125 
L 882.02064 105.198 
L 906.946892 112.72075 
L 931.873145 127.76625 
L 956.799397 135.289 
L 981.725649 105.198 
L 1006.651902 63.822875 
L 1031.578154 127.76625 
L 1056.504406 86.391125 
L 1081.430659 63.822875 
L 1106.356911 120.2435 
L 1131.283163 86.391125 
L 1156.209416 86.391125 
L 1181.135668 135.289 
L 1206.06192 86.391125 
L 1230.988173 116.482125 
L 1255.914425 131.527625 
L 1280.840677 97.67525 
L 1305.766929 93.913875 
L 1330.693182 112.72075 
" clip-path="url(#pa52851e04a)" style="fill: none; stroke-dasharray: 5.55,2.4; stroke-dashoffset: 0; stroke: #d62728; stroke-width: 1.5"/>
   </g>
   <g id="line2d_15">
    <path d="M 109.306818 368.49425 
L 134.233071 413.63075 
L 159.159323 319.596375 
L 184.085575 372.255625 
L 209.011827 417.392125 
L 233.93808 376.017 
L 258.864332 364.732875 
L 283.790584 315.835 
L 308.716837 398.58525 
L 333.643089 330.8805 
L 358.569341 398.58525 
L 383.495594 342.164625 
L 408.421846 376.017 
L 433.348098 364.732875 
L 458.274351 263.17575 
L 483.200603 221.800625 
L 508.126855 334.641875 
L 533.053108 176.664125 
L 557.97936 172.90275 
L 582.905612 330.8805 
L 607.831865 293.26675 
L 632.758117 195.471 
L 657.684369 312.073625 
L 682.610622 338.40325 
L 707.536874 353.44875 
L 732.463126 353.44875 
L 757.389378 360.9715 
L 782.315631 312.073625 
L 807.241883 312.073625 
L 832.168135 285.744 
L 857.094388 334.641875 
L 882.02064 240.6075 
L 906.946892 345.926 
L 931.873145 398.58525 
L 956.799397 391.0625 
L 981.725649 368.49425 
L 1006.651902 432.437625 
L 1031.578154 473.81275 
L 1056.504406 248.13025 
L 1081.430659 319.596375 
L 1106.356911 511.4265 
L 1131.283163 413.63075 
L 1156.209416 391.0625 
L 1181.135668 391.0625 
L 1206.06192 391.0625 
L 1230.988173 368.49425 
L 1255.914425 421.1535 
L 1280.840677 353.44875 
L 1305.766929 402.346625 
L 1330.693182 391.0625 
" clip-path="url(#pa52851e04a)" style="fill: none; stroke-dasharray: 1.5,2.475; stroke-dashoffset: 0; stroke: #d62728; stroke-width: 1.5"/>
   </g>
   <g id="line2d_16">
    <path d="M 109.306818 597.938125 
L 134.233071 545.278875 
L 159.159323 628.029125 
L 184.085575 533.99475 
L 209.011827 567.847125 
L 233.93808 575.369875 
L 258.864332 526.472 
L 283.790584 571.6085 
L 308.716837 533.99475 
L 333.643089 537.756125 
L 358.569341 488.85825 
L 383.495594 533.99475 
L 408.421846 447.483125 
L 433.348098 470.051375 
L 458.274351 406.108 
L 483.200603 413.63075 
L 508.126855 406.108 
L 533.053108 391.0625 
L 557.97936 391.0625 
L 582.905612 391.0625 
L 607.831865 451.2445 
L 632.758117 439.960375 
L 657.684369 406.108 
L 682.610622 406.108 
L 707.536874 413.63075 
L 732.463126 391.0625 
L 757.389378 406.108 
L 782.315631 394.823875 
L 807.241883 421.1535 
L 832.168135 541.5175 
L 857.094388 428.67625 
L 882.02064 462.528625 
L 906.946892 436.199 
L 931.873145 432.437625 
L 956.799397 391.0625 
L 981.725649 391.0625 
L 1006.651902 421.1535 
L 1031.578154 391.0625 
L 1056.504406 391.0625 
L 1081.430659 394.823875 
L 1106.356911 394.823875 
L 1131.283163 391.0625 
L 1156.209416 391.0625 
L 1181.135668 391.0625 
L 1206.06192 391.0625 
L 1230.988173 439.960375 
L 1255.914425 518.94925 
L 1280.840677 451.2445 
L 1305.766929 391.0625 
L 1330.693182 391.0625 
" clip-path="url(#pa52851e04a)" style="fill: none; stroke: #d62728; stroke-width: 1.5; stroke-linecap: square"/>
   </g>
   <g id="patch_3">
    <path d="M 48.2375 767.2 
L 48.2375 14.925 
" style="fill: none; stroke: #000000; stroke-width: 0.8; stroke-linejoin: miter; stroke-linecap: square"/>
   </g>
   <g id="patch_4">
    <path d="M 1391.7625 767.2 
L 1391.7625 14.925 
" style="fill: none; stroke: #000000; stroke-width: 0.8; stroke-linejoin: miter; stroke-linecap: square"/>
   </g>
   <g id="patch_5">
    <path d="M 48.2375 767.2 
L 1391.7625 767.2 
" style="fill: none; stroke: #000000; stroke-width: 0.8; stroke-linejoin: miter; stroke-linecap: square"/>
   </g>
   <g id="patch_6">
    <path d="M 48.2375 14.925 
L 1391.7625 14.925 
" style="fill: none; stroke: #000000; stroke-width: 0.8; stroke-linejoin: miter; stroke-linecap: square"/>
   </g>
   <g id="legend_1">
    <g id="patch_7">
     <path d="M 55.2375 66.959375 
L 129.129688 66.959375 
Q 131.129688 66.959375 131.129688 64.959375 
L 131.129688 21.925 
Q 131.129688 19.925 129.129688 19.925 
L 55.2375 19.925 
Q 53.2375 19.925 53.2375 21.925 
L 53.2375 64.959375 
Q 53.2375 66.959375 55.2375 66.959375 
z
" style="fill: #ffffff; opacity: 0.8; stroke: #cccccc; stroke-linejoin: miter"/>
    </g>
    <g id="line2d_17">
     <path d="M 57.2375 28.023438 
L 67.2375 28.023438 
L 77.2375 28.023438 
" style="fill: none; stroke-dasharray: 5.55,2.4; stroke-dashoffset: 0; stroke: #d62728; stroke-width: 1.5"/>
    </g>
    <g id="text_15">
     <!-- random -->
     <g transform="translate(85.2375 31.523438) scale(0.1 -0.1)">
      <defs>
       <path id="DejaVuSans-61" d="M 2194 1759 
Q 1497 1759 1228 1600 
Q 959 1441 959 1056 
Q 959 750 1161 570 
Q 1363 391 1709 391 
Q 2188 391 2477 730 
Q 2766 1069 2766 1631 
L 2766 1759 
L 2194 1759 
z
M 3341 1997 
L 3341 0 
L 2766 0 
L 2766 531 
Q 2569 213 2275 61 
Q 1981 -91 1556 -91 
Q 1019 -91 701 211 
Q 384 513 384 1019 
Q 384 1609 779 1909 
Q 1175 2209 1959 2209 
L 2766 2209 
L 2766 2266 
Q 2766 2663 2505 2880 
Q 2244 3097 1772 3097 
Q 1472 3097 1187 3025 
Q 903 2953 641 2809 
L 641 3341 
Q 956 3463 1253 3523 
Q 1550 3584 1831 3584 
Q 2591 3584 2966 3190 
Q 3341 2797 3341 1997 
z
" transform="scale(0.015625)"/>
       <path id="DejaVuSans-6e" d="M 3513 2113 
L 3513 0 
L 2938 0 
L 2938 2094 
Q 2938 2591 2744 2837 
Q 2550 3084 2163 3084 
Q 1697 3084 1428 2787 
Q 1159 2491 1159 1978 
L 1159 0 
L 581 0 
L 581 3500 
L 1159 3500 
L 1159 2956 
Q 1366 3272 1645 3428 
Q 1925 3584 2291 3584 
Q 2894 3584 3203 3211 
Q 3513 2838 3513 2113 
z
" transform="scale(0.015625)"/>
       <path id="DejaVuSans-64" d="M 2906 2969 
L 2906 4863 
L 3481 4863 
L 3481 0 
L 2906 0 
L 2906 525 
Q 2725 213 2448 61 
Q 2172 -91 1784 -91 
Q 1150 -91 751 415 
Q 353 922 353 1747 
Q 353 2572 751 3078 
Q 1150 3584 1784 3584 
Q 2172 3584 2448 3432 
Q 2725 3281 2906 2969 
z
M 947 1747 
Q 947 1113 1208 752 
Q 1469 391 1925 391 
Q 2381 391 2643 752 
Q 2906 1113 2906 1747 
Q 2906 2381 2643 2742 
Q 2381 3103 1925 3103 
Q 1469 3103 1208 2742 
Q 947 2381 947 1747 
z
" transform="scale(0.015625)"/>
       <path id="DejaVuSans-6d" d="M 3328 2828 
Q 3544 3216 3844 3400 
Q 4144 3584 4550 3584 
Q 5097 3584 5394 3201 
Q 5691 2819 5691 2113 
L 5691 0 
L 5113 0 
L 5113 2094 
Q 5113 2597 4934 2840 
Q 4756 3084 4391 3084 
Q 3944 3084 3684 2787 
Q 3425 2491 3425 1978 
L 3425 0 
L 2847 0 
L 2847 2094 
Q 2847 2600 2669 2842 
Q 2491 3084 2119 3084 
Q 1678 3084 1418 2786 
Q 1159 2488 1159 1978 
L 1159 0 
L 581 0 
L 581 3500 
L 1159 3500 
L 1159 2956 
Q 1356 3278 1631 3431 
Q 1906 3584 2284 3584 
Q 2666 3584 2933 3390 
Q 3200 3197 3328 2828 
z
" transform="scale(0.015625)"/>
      </defs>
      <use xlink:href="#DejaVuSans-72"/>
      <use xlink:href="#DejaVuSans-61" x="41.113281"/>
      <use xlink:href="#DejaVuSans-6e" x="102.392578"/>
      <use xlink:href="#DejaVuSans-64" x="165.771484"/>
      <use xlink:href="#DejaVuSans-6f" x="229.248047"/>
      <use xlink:href="#DejaVuSans-6d" x="290.429688"/>
     </g>
    </g>
    <g id="line2d_18">
     <path d="M 57.2375 42.701563 
L 67.2375 42.701563 
L 77.2375 42.701563 
" style="fill: none; stroke-dasharray: 1.5,2.475; stroke-dashoffset: 0; stroke: #d62728; stroke-width: 1.5"/>
    </g>
    <g id="text_16">
     <!-- self-play -->
     <g transform="translate(85.2375 46.201563) scale(0.1 -0.1)">
      <defs>
       <path id="DejaVuSans-6c" d="M 603 4863 
L 1178 4863 
L 1178 0 
L 603 0 
L 603 4863 
z
" transform="scale(0.015625)"/>
       <path id="DejaVuSans-66" d="M 2375 4863 
L 2375 4384 
L 1825 4384 
Q 1516 4384 1395 4259 
Q 1275 4134 1275 3809 
L 1275 3500 
L 2222 3500 
L 2222 3053 
L 1275 3053 
L 1275 0 
L 697 0 
L 697 3053 
L 147 3053 
L 147 3500 
L 697 3500 
L 697 3744 
Q 697 4328 969 4595 
Q 1241 4863 1831 4863 
L 2375 4863 
z
" transform="scale(0.015625)"/>
       <path id="DejaVuSans-2d" d="M 313 2009 
L 1997 2009 
L 1997 1497 
L 313 1497 
L 313 2009 
z
" transform="scale(0.015625)"/>
       <path id="DejaVuSans-79" d="M 2059 -325 
Q 1816 -950 1584 -1140 
Q 1353 -1331 966 -1331 
L 506 -1331 
L 506 -850 
L 844 -850 
Q 1081 -850 1212 -737 
Q 1344 -625 1503 -206 
L 1606 56 
L 191 3500 
L 800 3500 
L 1894 763 
L 2988 3500 
L 3597 3500 
L 2059 -325 
z
" transform="scale(0.015625)"/>
      </defs>
      <use xlink:href="#DejaVuSans-73"/>
      <use xlink:href="#DejaVuSans-65" x="52.099609"/>
      <use xlink:href="#DejaVuSans-6c" x="113.623047"/>
      <use xlink:href="#DejaVuSans-66" x="141.40625"/>
      <use xlink:href="#DejaVuSans-2d" x="171.111328"/>
      <use xlink:href="#DejaVuSans-70" x="207.195312"/>
      <use xlink:href="#DejaVuSans-6c" x="270.671875"/>
      <use xlink:href="#DejaVuSans-61" x="298.455078"/>
      <use xlink:href="#DejaVuSans-79" x="359.734375"/>
     </g>
    </g>
    <g id="line2d_19">
     <path d="M 57.2375 57.379688 
L 67.2375 57.379688 
L 77.2375 57.379688 
" style="fill: none; stroke: #d62728; stroke-width: 1.5; stroke-linecap: square"/>
    </g>
    <g id="text_17">
     <!-- best -->
     <g transform="translate(85.2375 60.879688) scale(0.1 -0.1)">
      <defs>
       <path id="DejaVuSans-62" d="M 3116 1747 
Q 3116 2381 2855 2742 
Q 2594 3103 2138 3103 
Q 1681 3103 1420 2742 
Q 1159 2381 1159 1747 
Q 1159 1113 1420 752 
Q 1681 391 2138 391 
Q 2594 391 2855 752 
Q 3116 1113 3116 1747 
z
M 1159 2969 
Q 1341 3281 1617 3432 
Q 1894 3584 2278 3584 
Q 2916 3584 3314 3078 
Q 3713 2572 3713 1747 
Q 3713 922 3314 415 
Q 2916 -91 2278 -91 
Q 1894 -91 1617 61 
Q 1341 213 1159 525 
L 1159 0 
L 581 0 
L 581 4863 
L 1159 4863 
L 1159 2969 
z
" transform="scale(0.015625)"/>
      </defs>
      <use xlink:href="#DejaVuSans-62"/>
      <use xlink:href="#DejaVuSans-65" x="63.476562"/>
      <use xlink:href="#DejaVuSans-73" x="125"/>
      <use xlink:href="#DejaVuSans-74" x="177.099609"/>
     </g>
    </g>
   </g>
  </g>
  <g id="axes_2">
   <g id="matplotlib.axis_3">
    <g id="ytick_7">
     <g id="line2d_20">
      <defs>
       <path id="m738056e1fb" d="M 0 0 
L 3.5 0 
" style="stroke: #000000; stroke-width: 0.8"/>
      </defs>
      <g>
       <use xlink:href="#m738056e1fb" x="1391.7625" y="747.584643" style="stroke: #000000; stroke-width: 0.8"/>
      </g>
     </g>
     <g id="text_18">
      <!-- 0.0 -->
      <g style="fill: #1f77b4" transform="translate(1398.7625 751.383861) scale(0.1 -0.1)">
       <use xlink:href="#DejaVuSans-30"/>
       <use xlink:href="#DejaVuSans-2e" x="63.623047"/>
       <use xlink:href="#DejaVuSans-30" x="95.410156"/>
      </g>
     </g>
    </g>
    <g id="ytick_8">
     <g id="line2d_21">
      <g>
       <use xlink:href="#m738056e1fb" x="1391.7625" y="617.030109" style="stroke: #000000; stroke-width: 0.8"/>
      </g>
     </g>
     <g id="text_19">
      <!-- 0.5 -->
      <g style="fill: #1f77b4" transform="translate(1398.7625 620.829328) scale(0.1 -0.1)">
       <use xlink:href="#DejaVuSans-30"/>
       <use xlink:href="#DejaVuSans-2e" x="63.623047"/>
       <use xlink:href="#DejaVuSans-35" x="95.410156"/>
      </g>
     </g>
    </g>
    <g id="ytick_9">
     <g id="line2d_22">
      <g>
       <use xlink:href="#m738056e1fb" x="1391.7625" y="486.475576" style="stroke: #000000; stroke-width: 0.8"/>
      </g>
     </g>
     <g id="text_20">
      <!-- 1.0 -->
      <g style="fill: #1f77b4" transform="translate(1398.7625 490.274795) scale(0.1 -0.1)">
       <use xlink:href="#DejaVuSans-31"/>
       <use xlink:href="#DejaVuSans-2e" x="63.623047"/>
       <use xlink:href="#DejaVuSans-30" x="95.410156"/>
      </g>
     </g>
    </g>
    <g id="ytick_10">
     <g id="line2d_23">
      <g>
       <use xlink:href="#m738056e1fb" x="1391.7625" y="355.921043" style="stroke: #000000; stroke-width: 0.8"/>
      </g>
     </g>
     <g id="text_21">
      <!-- 1.5 -->
      <g style="fill: #1f77b4" transform="translate(1398.7625 359.720261) scale(0.1 -0.1)">
       <use xlink:href="#DejaVuSans-31"/>
       <use xlink:href="#DejaVuSans-2e" x="63.623047"/>
       <use xlink:href="#DejaVuSans-35" x="95.410156"/>
      </g>
     </g>
    </g>
    <g id="ytick_11">
     <g id="line2d_24">
      <g>
       <use xlink:href="#m738056e1fb" x="1391.7625" y="225.366509" style="stroke: #000000; stroke-width: 0.8"/>
      </g>
     </g>
     <g id="text_22">
      <!-- 2.0 -->
      <g style="fill: #1f77b4" transform="translate(1398.7625 229.165728) scale(0.1 -0.1)">
       <use xlink:href="#DejaVuSans-32"/>
       <use xlink:href="#DejaVuSans-2e" x="63.623047"/>
       <use xlink:href="#DejaVuSans-30" x="95.410156"/>
      </g>
     </g>
    </g>
    <g id="ytick_12">
     <g id="line2d_25">
      <g>
       <use xlink:href="#m738056e1fb" x="1391.7625" y="94.811976" style="stroke: #000000; stroke-width: 0.8"/>
      </g>
     </g>
     <g id="text_23">
      <!-- 2.5 -->
      <g style="fill: #1f77b4" transform="translate(1398.7625 98.611195) scale(0.1 -0.1)">
       <use xlink:href="#DejaVuSans-32"/>
       <use xlink:href="#DejaVuSans-2e" x="63.623047"/>
       <use xlink:href="#DejaVuSans-35" x="95.410156"/>
      </g>
     </g>
    </g>
    <g id="text_24">
     <!-- loss -->
     <g style="fill: #1f77b4" transform="translate(1426.264063 400.720312) rotate(-90) scale(0.1 -0.1)">
      <use xlink:href="#DejaVuSans-6c"/>
      <use xlink:href="#DejaVuSans-6f" x="27.783203"/>
      <use xlink:href="#DejaVuSans-73" x="88.964844"/>
      <use xlink:href="#DejaVuSans-73" x="141.064453"/>
     </g>
    </g>
   </g>
   <g id="line2d_26">
    <path d="M 109.306818 607.16314 
L 134.233071 617.647498 
L 159.159323 656.835703 
L 184.085575 621.975586 
L 209.011827 625.493283 
L 233.93808 628.847068 
L 258.864332 633.189396 
L 283.790584 625.097547 
L 308.716837 606.684304 
L 333.643089 658.01769 
L 358.569341 643.677497 
L 383.495594 636.435911 
L 408.421846 634.643772 
L 433.348098 663.543016 
L 458.274351 640.186211 
L 483.200603 634.39907 
L 508.126855 646.411162 
L 533.053108 628.185021 
L 557.97936 668.919526 
L 582.905612 617.193252 
L 607.831865 653.213474 
L 632.758117 648.656824 
L 657.684369 681.747564 
L 682.610622 669.325231 
L 707.536874 674.112545 
L 732.463126 692.1309 
L 757.389378 676.225 
L 782.315631 680.400302 
L 807.241883 643.621104 
L 832.168135 624.604634 
L 857.094388 643.534548 
L 882.02064 649.265567 
L 906.946892 670.524119 
L 931.873145 697.314803 
L 956.799397 706.898609 
L 981.725649 689.305661 
L 1006.651902 721.288904 
L 1031.578154 726.841911 
L 1056.504406 689.65917 
L 1081.430659 673.0984 
L 1106.356911 695.752666 
L 1131.283163 726.370102 
L 1156.209416 730.063626 
L 1181.135668 716.736761 
L 1206.06192 716.145993 
L 1230.988173 727.04561 
L 1255.914425 731.032516 
L 1280.840677 714.842078 
L 1305.766929 710.802063 
L 1330.693182 733.005682 
" clip-path="url(#pa52851e04a)" style="fill: none; stroke-dasharray: 1.5,2.475; stroke-dashoffset: 0; stroke: #1f77b4; stroke-width: 1.5"/>
   </g>
   <g id="line2d_27">
    <path d="M 109.306818 189.540821 
L 134.233071 202.926453 
L 159.159323 218.092653 
L 184.085575 229.39028 
L 209.011827 269.720769 
L 233.93808 283.226208 
L 258.864332 288.800831 
L 283.790584 320.089596 
L 308.716837 332.9429 
L 333.643089 366.72469 
L 358.569341 351.124367 
L 383.495594 369.771613 
L 408.421846 362.725915 
L 433.348098 404.795138 
L 458.274351 422.258109 
L 483.200603 492.592192 
L 508.126855 509.144289 
L 533.053108 500.02993 
L 557.97936 473.366442 
L 582.905612 541.933388 
L 607.831865 498.378056 
L 632.758117 486.991998 
L 657.684369 487.28076 
L 682.610622 533.744206 
L 707.536874 543.028859 
L 732.463126 551.958356 
L 757.389378 561.156477 
L 782.315631 548.277586 
L 807.241883 546.674627 
L 832.168135 529.236791 
L 857.094388 490.632786 
L 882.02064 520.176904 
L 906.946892 509.148973 
L 931.873145 483.908999 
L 956.799397 518.358159 
L 981.725649 551.815983 
L 1006.651902 568.322137 
L 1031.578154 566.422728 
L 1056.504406 567.426064 
L 1081.430659 546.460569 
L 1106.356911 571.277984 
L 1131.283163 567.551442 
L 1156.209416 568.696264 
L 1181.135668 573.010383 
L 1206.06192 575.179769 
L 1230.988173 574.287882 
L 1255.914425 567.800533 
L 1280.840677 574.652281 
L 1305.766929 566.368288 
L 1330.693182 579.906549 
" clip-path="url(#pa52851e04a)" style="fill: none; stroke-dasharray: 5.55,2.4; stroke-dashoffset: 0; stroke: #1f77b4; stroke-width: 1.5"/>
   </g>
   <g id="line2d_28">
    <path d="M 109.306818 49.119318 
L 134.233071 72.989309 
L 159.159323 127.343713 
L 184.085575 103.781222 
L 209.011827 147.62941 
L 233.93808 164.488633 
L 258.864332 174.405584 
L 283.790584 197.6025 
L 308.716837 192.042561 
L 333.643089 277.157737 
L 358.569341 247.217222 
L 383.495594 258.622882 
L 408.421846 249.785044 
L 433.348098 320.753511 
L 458.274351 314.859677 
L 483.200603 379.406619 
L 508.126855 407.970808 
L 533.053108 380.630308 
L 557.97936 394.701325 
L 582.905612 411.541997 
L 607.831865 404.006887 
L 632.758117 388.064179 
L 657.684369 421.443681 
L 682.610622 455.484794 
L 707.536874 469.556761 
L 732.463126 496.504614 
L 757.389378 489.796834 
L 782.315631 481.093245 
L 807.241883 442.711088 
L 832.168135 406.256782 
L 857.094388 386.582692 
L 882.02064 421.857828 
L 906.946892 432.08845 
L 931.873145 433.639159 
L 956.799397 477.672126 
L 981.725649 493.537001 
L 1006.651902 542.026398 
L 1031.578154 545.679997 
L 1056.504406 509.500591 
L 1081.430659 471.974327 
L 1106.356911 519.446008 
L 1131.283163 546.336901 
L 1156.209416 551.175247 
L 1181.135668 542.162502 
L 1206.06192 543.741119 
L 1230.988173 553.748849 
L 1255.914425 551.248407 
L 1280.840677 541.909716 
L 1305.766929 529.585708 
L 1330.693182 565.327589 
" clip-path="url(#pa52851e04a)" style="fill: none; stroke: #1f77b4; stroke-width: 1.5; stroke-linecap: square"/>
   </g>
   <g id="patch_8">
    <path d="M 48.2375 767.2 
L 48.2375 14.925 
" style="fill: none; stroke: #000000; stroke-width: 0.8; stroke-linejoin: miter; stroke-linecap: square"/>
   </g>
   <g id="patch_9">
    <path d="M 1391.7625 767.2 
L 1391.7625 14.925 
" style="fill: none; stroke: #000000; stroke-width: 0.8; stroke-linejoin: miter; stroke-linecap: square"/>
   </g>
   <g id="patch_10">
    <path d="M 48.2375 767.2 
L 1391.7625 767.2 
" style="fill: none; stroke: #000000; stroke-width: 0.8; stroke-linejoin: miter; stroke-linecap: square"/>
   </g>
   <g id="patch_11">
    <path d="M 48.2375 14.925 
L 1391.7625 14.925 
" style="fill: none; stroke: #000000; stroke-width: 0.8; stroke-linejoin: miter; stroke-linecap: square"/>
   </g>
   <g id="legend_2">
    <g id="patch_12">
     <path d="M 55.2375 762.2 
L 155.020313 762.2 
Q 157.020313 762.2 157.020313 760.2 
L 157.020313 717.165625 
Q 157.020313 715.165625 155.020313 715.165625 
L 55.2375 715.165625 
Q 53.2375 715.165625 53.2375 717.165625 
L 53.2375 760.2 
Q 53.2375 762.2 55.2375 762.2 
z
" style="fill: #ffffff; opacity: 0.8; stroke: #cccccc; stroke-linejoin: miter"/>
    </g>
    <g id="line2d_29">
     <path d="M 57.2375 723.264063 
L 67.2375 723.264063 
L 77.2375 723.264063 
" style="fill: none; stroke-dasharray: 1.5,2.475; stroke-dashoffset: 0; stroke: #1f77b4; stroke-width: 1.5"/>
    </g>
    <g id="text_25">
     <!-- mse -->
     <g transform="translate(85.2375 726.764063) scale(0.1 -0.1)">
      <use xlink:href="#DejaVuSans-6d"/>
      <use xlink:href="#DejaVuSans-73" x="97.412109"/>
      <use xlink:href="#DejaVuSans-65" x="149.511719"/>
     </g>
    </g>
    <g id="line2d_30">
     <path d="M 57.2375 737.942188 
L 67.2375 737.942188 
L 77.2375 737.942188 
" style="fill: none; stroke-dasharray: 5.55,2.4; stroke-dashoffset: 0; stroke: #1f77b4; stroke-width: 1.5"/>
    </g>
    <g id="text_26">
     <!-- cross entropy -->
     <g transform="translate(85.2375 741.442188) scale(0.1 -0.1)">
      <defs>
       <path id="DejaVuSans-20" transform="scale(0.015625)"/>
      </defs>
      <use xlink:href="#DejaVuSans-63"/>
      <use xlink:href="#DejaVuSans-72" x="54.980469"/>
      <use xlink:href="#DejaVuSans-6f" x="93.84375"/>
      <use xlink:href="#DejaVuSans-73" x="155.025391"/>
      <use xlink:href="#DejaVuSans-73" x="207.125"/>
      <use xlink:href="#DejaVuSans-20" x="259.224609"/>
      <use xlink:href="#DejaVuSans-65" x="291.011719"/>
      <use xlink:href="#DejaVuSans-6e" x="352.535156"/>
      <use xlink:href="#DejaVuSans-74" x="415.914062"/>
      <use xlink:href="#DejaVuSans-72" x="455.123047"/>
      <use xlink:href="#DejaVuSans-6f" x="493.986328"/>
      <use xlink:href="#DejaVuSans-70" x="555.167969"/>
      <use xlink:href="#DejaVuSans-79" x="618.644531"/>
     </g>
    </g>
    <g id="line2d_31">
     <path d="M 57.2375 752.620312 
L 67.2375 752.620312 
L 77.2375 752.620312 
" style="fill: none; stroke: #1f77b4; stroke-width: 1.5; stroke-linecap: square"/>
    </g>
    <g id="text_27">
     <!-- loss -->
     <g transform="translate(85.2375 756.120312) scale(0.1 -0.1)">
      <use xlink:href="#DejaVuSans-6c"/>
      <use xlink:href="#DejaVuSans-6f" x="27.783203"/>
      <use xlink:href="#DejaVuSans-73" x="88.964844"/>
      <use xlink:href="#DejaVuSans-73" x="141.064453"/>
     </g>
    </g>
   </g>
  </g>
 </g>
 <defs>
  <clipPath id="pa52851e04a">
   <rect x="48.2375" y="14.925" width="1343.525" height="752.275"/>
  </clipPath>
 </defs>
</svg>
